<svg width="720" height="600" viewBox="0 0 720 600" fill="none" xmlns="http://www.w3.org/2000/svg">
  <rect width="720" height="600" rx="44" fill="url(#paint0_linear)"/>
  <circle cx="100" cy="110" r="60" fill="#F5FFEA" fill-opacity="0.12"/>
  <circle cx="640" cy="76" r="46" fill="#F5FFEA" fill-opacity="0.1"/>
  <rect x="122" y="110" width="396" height="310" rx="28" fill="#F1F9E7"/>
  <rect x="160" y="150" width="180" height="18" rx="9" fill="#93D259" fill-opacity="0.9"/>
  <rect x="160" y="188" width="144" height="14" rx="7" fill="#C2E99D"/>
  <rect x="160" y="224" width="120" height="10" rx="5" fill="#C2E99D"/>
  <rect x="160" y="280" width="278" height="82" rx="20" fill="#FFFFFF"/>
  <path d="M355 158C385.928 158 411 132.928 411 102C411 71.0721 385.928 46 355 46C324.072 46 299 71.0721 299 102C299 132.928 324.072 158 355 158Z" fill="#C2E99D"/>
  <path d="M322 210H396" stroke="#93D259" stroke-width="12" stroke-linecap="round"/>
  <path d="M322 238H404" stroke="#93D259" stroke-width="12" stroke-linecap="round" stroke-opacity="0.8"/>
  <path d="M220 420C220 356.8 272.8 304 336 304C399.2 304 452 356.8 452 420" stroke="#C2E99D" stroke-width="16" stroke-linecap="round"/>
  <rect x="510" y="330" width="112" height="112" rx="24" fill="#FFFFFF" fill-opacity="0.94"/>
  <path d="M536 386C536 363.909 553.909 346 576 346C598.091 346 616 363.909 616 386V413H536V386Z" fill="#93D259"/>
  <path d="M576 364C587.046 364 596 372.954 596 384C596 395.046 587.046 404 576 404C564.954 404 556 395.046 556 384C556 372.954 564.954 364 576 364Z" fill="#1D3322"/>
  <path d="M188 130L230 102" stroke="#93D259" stroke-width="10" stroke-linecap="round"/>
  <path d="M482 112L520 92" stroke="#93D259" stroke-width="10" stroke-linecap="round" stroke-opacity="0.8"/>
  <defs>
    <linearGradient id="paint0_linear" x1="88" y1="48" x2="628" y2="572" gradientUnits="userSpaceOnUse">
      <stop stop-color="#2D5236"/>
      <stop offset="1" stop-color="#1D3322"/>
    </linearGradient>
  </defs>
</svg>